# xmcd CD database file
#
# Track frame offsets:
#	150
#	16730
#	35452
#	55264
#	71863
#	89055
#	108632
#	124783
#	141426
#	161017
#	176787
#	194019
#	212727
#	231899
#	249064
#	267384
#	282462
#	290885
#	313410
#	331277
#
# Disc length: 4694 seconds
#
# Revision: 0
# Processed by: cddbd v1.4PL0 Copyright (c) Steve Scherf et al.
# Submitted via: CDex 1.50Beta7
#
DISCID=47125414
DTITLE=Era - The Mass (with 10 bonus tracks)
DYEAR=2003
DGENRE=New Age
TTITLE0=The Mass
TTITLE1=Looking For Something
TTITLE2=Don't Go Away
TTITLE3=Don't You Forget
TTITLE4=If You Shout
TTITLE5=Avemano Orchestral
TTITLE6=Enae Volare
TTITLE7=Sombre Day
TTITLE8=Voxifera
TTITLE9=The Champions
TTITLE10=Ameno (remix)
TTITLE11=Mother (remix)
TTITLE12=Avemano
TTITLE13=Enae Volare mezzo
TTITLE14=Misere Mani
TTITLE15=Cathar Rhythm
TTITLE16=Sempire d'Amor
TTITLE17=Mother
TTITLE18=Mirror
TTITLE19=Impera
EXTD=YEAR: 2003
EXTT0=
EXTT1=
EXTT2=
EXTT3=
EXTT4=
EXTT5=
EXTT6=
EXTT7=
EXTT8=
EXTT9=
EXTT10=
EXTT11=
EXTT12=
EXTT13=
EXTT14=
EXTT15=
EXTT16=
EXTT17=
EXTT18=
EXTT19=
PLAYORDER=
